HIERARCHY
ROOT Hips
{
	OFFSET 0.00000 0.00000 0.00000
	CHANNELS 6 Xposition Yposition Zposition Zrotation Yrotation Xrotation 
	JOINT LHipJoint
	{
		OFFSET 0 0 0
		CHANNELS 3 Zrotation Yrotation Xrotation
		JOINT LeftUpLeg
		{
			OFFSET 1.64577 -1.42384 0.94276
			CHANNELS 3 Zrotation Yrotation Xrotation
			JOINT LeftLeg
			{
				OFFSET 2.11538 -5.81197 0.00000
				CHANNELS 3 Zrotation Yrotation Xrotation
				JOINT LeftFoot
				{
					OFFSET 2.36541 -6.49893 0.00000
					CHANNELS 3 Zrotation Yrotation Xrotation
					JOINT LeftToeBase
					{
						OFFSET 0.17759 -0.48793 1.73865
						CHANNELS 3 Zrotation Yrotation Xrotation
						End Site
						{
							OFFSET 0.00000 -0.00000 0.91205
						}
					}
				}
			}
		}
	}
	JOINT RHipJoint
	{
		OFFSET 0 0 0
		CHANNELS 3 Zrotation Yrotation Xrotation
		JOINT RightUpLeg
		{
			OFFSET -1.43750 -1.42384 0.94276
			CHANNELS 3 Zrotation Yrotation Xrotation
			JOINT RightLeg
			{
				OFFSET -2.10480 -5.78291 0.00000
				CHANNELS 3 Zrotation Yrotation Xrotation
				JOINT RightFoot
				{
					OFFSET -2.34880 -6.45329 0.00000
					CHANNELS 3 Zrotation Yrotation Xrotation
					JOINT RightToeBase
					{
						OFFSET -0.22842 -0.62757 1.80469
						CHANNELS 3 Zrotation Yrotation Xrotation
						End Site
						{
							OFFSET -0.00000 -0.00000 0.95886
						}
					}
				}
			}
		}
	}
	JOINT LowerBack
	{
		OFFSET 0 0 0
		CHANNELS 3 Zrotation Yrotation Xrotation
		JOINT Spine
		{
			OFFSET 0.06217 1.93758 -0.49272
			CHANNELS 3 Zrotation Yrotation Xrotation
			JOINT Spine1
			{
				OFFSET -0.03114 2.03621 -0.05830
				CHANNELS 3 Zrotation Yrotation Xrotation
				JOINT Neck
				{
					OFFSET 0 0 0
					CHANNELS 3 Zrotation Yrotation Xrotation
					JOINT Neck1
					{
						OFFSET 0.04421 1.41010 0.26562
						CHANNELS 3 Zrotation Yrotation Xrotation
						JOINT Head
						{
							OFFSET -0.13407 1.43847 0.06181
							CHANNELS 3 Zrotation Yrotation Xrotation
							End Site
							{
								OFFSET -0.04980 1.45844 -0.00689
							}
						}
					}
				}
				JOINT LeftShoulder
				{
					OFFSET 0 0 0
					CHANNELS 3 Zrotation Yrotation Xrotation
					JOINT LeftArm
					{
						OFFSET 2.18382 1.47753 -0.35694
						CHANNELS 3 Zrotation Yrotation Xrotation
						JOINT LeftForeArm
						{
							OFFSET 5.05460 -0.00000 0.00000
							CHANNELS 3 Zrotation Yrotation Xrotation
							JOINT LeftHand
							{
								OFFSET 3.39013 -0.00000 0.00000
								CHANNELS 3 Zrotation Yrotation Xrotation
								JOINT LeftFingerBase
								{
									OFFSET 0 0 0
									CHANNELS 3 Zrotation Yrotation Xrotation
									JOINT LeftHandIndex1
									{
										OFFSET 0.57242 -0.00000 -0.00000
										CHANNELS 3 Zrotation Yrotation Xrotation
										End Site
										{
											OFFSET 0.46150 -0.00000 -0.00000
										}
									}
								}
								JOINT LThumb
								{
									OFFSET 0 0 0
									CHANNELS 3 Zrotation Yrotation Xrotation
									End Site
									{
										OFFSET 0.46855 -0.00000 0.46855
									}
								}
							}
						}
					}
				}
				JOINT RightShoulder
				{
					OFFSET 0 0 0
					CHANNELS 3 Zrotation Yrotation Xrotation
					JOINT RightArm
					{
						OFFSET -2.06033 1.72839 -0.47437
						CHANNELS 3 Zrotation Yrotation Xrotation
						JOINT RightForeArm
						{
							OFFSET -5.07010 -0.00000 0.00000
							CHANNELS 3 Zrotation Yrotation Xrotation
							JOINT RightHand
							{
								OFFSET -3.14957 -0.00000 -0.00000
								CHANNELS 3 Zrotation Yrotation Xrotation
								JOINT RightFingerBase
								{
									OFFSET 0 0 0
									CHANNELS 3 Zrotation Yrotation Xrotation
									JOINT RightHandIndex1
									{
										OFFSET -0.71819 -0.00000 -0.00000
										CHANNELS 3 Zrotation Yrotation Xrotation
										End Site
										{
											OFFSET -0.57902 -0.00000 -0.00000
										}
									}
								}
								JOINT RThumb
								{
									OFFSET 0 0 0
									CHANNELS 3 Zrotation Yrotation Xrotation
									End Site
									{
										OFFSET -0.58786 -0.00000 0.58786
									}
								}
							}
						}
					}
				}
			}
		}
	}
}
MOTION
Frames: 12
Frame Time: .0083333
-25.6521 15.173 0.0506 0 0 0 0 0 0 -21 0 0 0 0 0 0 0 0 0 0 0 0 0 0 21 0 0 0 0 0 0 0 0 0 0 0 0 0 0 0 0 0 0 0 0 0 0 -16 0 0 21 0 0 11 0 0 0 -8 0 0 0 0 0 0 0 0 0 0 0 0 0 0 0 0 0 0 0 0 8 0 0 0 0 0 0 0 0 0 0 0 0 0 0 0 0 0
-25.6521 15.1730 0.0506 170.2890 -86.3085 -171.9990 0.0000 0.0000 0.0000 -26.4465 -20.2916 2.9401 1.8723 8.5948 24.5358 1.0196 17.0553 -31.7515 0.0065 0.5200 1.4287 0.0000 0.0000 0.0000 23.5441 20.1776 0.6147 -2.1853 -9.2419 26.5551 -1.5786 -18.2086 -36.1033 -1.0595 6.5444 -18.3725 -3.2103 2.1140 2.7218 -1.5813 2.7206 3.3294 0.1405 1.2777 1.8224 6.4486 2.2490 -8.4244 -1.6965 2.3770 3.0775 -1.5665 1.2077 2.5772 0.0000 -0.0000 0.0000 -87.3899 -1.6587 34.1928 14.3658 -23.2552 -2.9710 -0.0000 -0.0000 3.4320 18.7173 14.3698 4.8066 -7.1250 0.0000 -0.0000 -8.1573 44.9590 0.0083 0.0000 -0.0000 0.0000 91.2007 -2.1225 30.4579 -16.4046 26.0662 -3.8220 0.0000 -0.0000 -12.8115 -21.4749 -0.4221 0.1660 7.1250 -0.0000 -0.0000 4.0298 -30.4201 1.4378
-25.6523 15.1719 0.0516 169.5840 -86.3117 -171.3030 0.0000 0.0000 0.0000 -26.5115 -20.3559 3.0102 1.8640 8.5769 24.4804 1.0495 16.9529 -31.8349 0.0149 0.7879 2.1654 0.0000 0.0000 0.0000 23.4816 20.1517 0.5771 -2.1943 -9.2596 26.6109 -1.5858 -18.1691 -36.1049 -1.0589 6.5428 -18.3676 -3.2888 2.0923 2.7222 -1.5745 2.6904 3.3287 0.1915 1.2608 1.8184 6.4342 2.2362 -8.3850 -1.7724 2.3693 3.1123 -1.5897 1.2023 2.5826 0.0000 0.0000 0.0000 -87.4452 -1.6644 34.1778 14.3928 -23.2935 -2.9817 -0.0000 -0.0000 3.4090 18.7115 14.4890 4.8438 -7.1250 0.0000 -0.0000 -8.1900 45.0817 -0.0166 0.0000 0.0000 0.0000 91.1118 -2.1316 30.4965 -16.4454 26.1208 -3.8399 0.0000 -0.0000 -13.1336 -21.2931 -0.4219 0.1644 7.1250 -0.0000 -0.0000 4.1735 -30.4184 1.4894
-25.6528 15.1722 0.0522 169.3270 -86.3092 -171.0360 0.0000 0.0000 0.0000 -26.5189 -20.3260 2.9937 1.8601 8.5683 24.4540 1.0535 16.9145 -31.8211 0.0134 0.7466 2.0517 0.0000 0.0000 0.0000 23.4288 20.0654 0.5071 -2.1978 -9.2665 26.6325 -1.5732 -18.1427 -36.0130 -1.0881 6.6294 -18.6221 -3.3258 2.0964 2.7195 -1.5797 2.6954 3.3308 0.2068 1.2624 1.8207 6.4885 2.1725 -8.4048 -1.8745 2.2833 3.1415 -1.6378 1.1576 2.5957 -0.0000 0.0000 0.0000 -87.4706 -1.7122 34.2058 14.3938 -23.2949 -2.9821 -0.0000 -0.0000 3.4186 18.6662 14.8559 4.9503 -7.1250 0.0000 -0.0000 -8.3175 45.4554 -0.0941 -0.0000 0.0000 0.0000 91.0736 -2.1487 30.5101 -16.4795 26.1666 -3.8550 0.0000 -0.0000 -13.2799 -21.2959 -0.3600 0.1403 7.1250 -0.0000 -0.0000 4.1682 -30.3522 1.4942
-25.6526 15.1723 0.0520 168.5610 -86.2967 -170.2800 0.0000 0.0000 0.0000 -26.5652 -20.2796 2.9938 1.8580 8.5638 24.4400 1.0620 16.8506 -31.8095 0.0138 0.7587 2.0851 0.0000 0.0000 0.0000 23.3817 20.0758 0.5174 -2.1992 -9.2692 26.6412 -1.5718 -18.1572 -36.0189 -1.0985 6.6600 -18.7121 -3.4153 2.0882 2.7432 -1.5958 2.6815 3.3246 0.2392 1.2538 1.7983 6.4934 2.1189 -8.4471 -1.8589 2.2073 3.2003 -1.6376 1.1212 2.6197 0.0000 0.0000 0.0000 -87.4545 -1.7486 34.2622 14.3836 -23.2804 -2.9780 -0.0000 -0.0000 3.3926 18.7296 15.1106 5.0510 -7.1250 0.0000 -0.0000 -8.3201 45.7265 -0.1502 0.0000 0.0000 0.0000 91.0344 -2.2143 30.6617 -16.5142 26.2129 -3.8703 0.0000 -0.0000 -13.3421 -21.4495 -0.3361 0.1320 7.1250 -0.0000 -0.0000 4.0458 -30.3278 1.4525
-25.6516 15.1732 0.0520 168.8270 -86.3033 -170.5370 0.0000 0.0000 0.0000 -26.5336 -20.2874 2.9815 1.8578 8.5634 24.4387 1.0624 16.8193 -31.7805 0.0168 0.8373 2.3013 0.0000 0.0000 0.0000 23.4213 20.1555 0.5431 -2.1987 -9.2682 26.6380 -1.5796 -18.1923 -36.0935 -1.0813 6.6094 -18.5633 -3.4367 2.0677 2.7618 -1.5893 2.6527 3.3199 0.2574 1.2391 1.7826 6.4303 2.0985 -8.5325 -1.7605 2.1749 3.2395 -1.5952 1.1076 2.6441 -0.0000 0.0000 0.0000 -87.4191 -1.8094 34.3954 14.3733 -23.2658 -2.9740 -0.0000 -0.0000 3.2937 19.0154 15.1392 5.1430 -7.1250 0.0000 -0.0000 -8.0634 45.7923 -0.1587 -0.0000 0.0000 0.0000 90.9796 -2.2056 30.8062 -16.4873 26.1769 -3.8584 0.0000 -0.0000 -13.4009 -21.5109 -0.2994 0.1180 7.1250 -0.0000 -0.0000 3.9957 -30.2889 1.4381
-25.6514 15.1744 0.0529 169.3020 -86.3277 -170.9850 0.0000 0.0000 0.0000 -26.4927 -20.3201 2.9496 1.8583 8.5645 24.4423 1.0344 16.9165 -31.7034 0.0103 0.6546 1.7988 0.0000 0.0000 0.0000 23.4491 20.1699 0.5205 -2.1984 -9.2677 26.6365 -1.5769 -18.2172 -36.1027 -1.0844 6.6185 -18.5899 -3.4082 2.0693 2.7500 -1.5854 2.6560 3.3186 0.2459 1.2414 1.7889 6.2613 2.0593 -8.6490 -1.5688 2.1216 3.2869 -1.5040 1.0853 2.6722 -0.0000 0.0000 0.0000 -87.3651 -1.8705 34.6603 14.3863 -23.2842 -2.9791 -0.0000 -0.0000 3.1010 19.4471 14.9560 5.2065 -7.1250 0.0000 -0.0000 -7.6222 45.6569 -0.1243 -0.0000 0.0000 0.0000 90.9425 -2.1579 30.8047 -16.4275 26.0969 -3.8321 0.0000 -0.0000 -13.4007 -21.4737 -0.2459 0.0967 7.1250 -0.0000 -0.0000 4.0226 -30.2312 1.4534
-25.6531 15.1735 0.0538 168.8860 -86.3347 -170.5730 0.0000 0.0000 0.0000 -26.5351 -20.3113 2.9468 1.8604 8.5691 24.4564 1.0173 16.9920 -31.6728 0.0060 0.4995 1.3726 0.0000 0.0000 0.0000 23.4086 20.1240 0.5200 -2.1973 -9.2654 26.6292 -1.5842 -18.1741 -36.1013 -1.0848 6.6197 -18.5935 -3.4214 2.0866 2.7249 -1.6065 2.6803 3.3289 0.2325 1.2528 1.8134 6.1641 2.0163 -8.7492 -1.4461 2.0606 3.3421 -1.4491 1.0582 2.7027 0.0000 -0.0000 0.0000 -87.3124 -1.9578 34.8799 14.3777 -23.2720 -2.9757 -0.0000 -0.0000 3.0183 19.5672 14.8240 5.1961 -7.1250 0.0000 -0.0000 -7.4810 45.5347 -0.0993 0.0000 -0.0000 0.0000 90.9378 -2.1561 30.7356 -16.4013 26.0617 -3.8206 0.0000 -0.0000 -13.3026 -21.4731 -0.2629 0.1034 7.1250 -0.0000 -0.0000 4.0239 -30.2495 1.4521
-25.6540 15.1712 0.0538 169.2000 -86.3292 -170.9190 0.0000 0.0000 0.0000 -26.5370 -20.3005 2.9807 1.8644 8.5776 24.4828 1.0343 16.9591 -31.7456 0.0100 0.6447 1.7716 0.0000 0.0000 0.0000 23.4373 20.0944 0.5624 -2.1946 -9.2601 26.6125 -1.5897 -18.1404 -36.0991 -1.0775 6.5980 -18.5299 -3.3974 2.1062 2.7341 -1.6136 2.7062 3.3469 0.2114 1.2658 1.8274 6.0032 1.9452 -8.8023 -1.2487 1.9682 3.3767 -1.3599 1.0169 2.7137 0.0000 -0.0000 0.0000 -87.2749 -2.0525 35.0257 14.3477 -23.2296 -2.9639 -0.0000 -0.0000 3.0933 19.4518 14.8466 5.1708 -7.1250 0.0000 -0.0000 -7.5926 45.5436 -0.1025 0.0000 -0.0000 0.0000 90.9335 -2.1646 30.7586 -16.3803 26.0336 -3.8113 0.0000 -0.0000 -13.0978 -21.6457 -0.3633 0.1442 7.1250 -0.0000 -0.0000 3.8921 -30.3585 1.3942
-25.6537 15.1707 0.0537 169.8460 -86.3361 -171.5770 0.0000 0.0000 0.0000 -26.5091 -20.3466 3.0135 1.8679 8.5853 24.5064 1.0626 16.8856 -31.8484 0.0166 0.8314 2.2850 0.0000 0.0000 0.0000 23.4873 20.0838 0.5803 -2.1924 -9.2558 26.5989 -1.5743 -18.1758 -36.0499 -1.0838 6.6166 -18.5843 -3.3576 2.1245 2.7427 -1.6051 2.7310 3.3543 0.1974 1.2788 1.8309 5.7661 1.8560 -8.8138 -0.9923 1.8598 3.4167 -1.2389 0.9688 2.7160 0.0000 -0.0000 0.0000 -87.2433 -2.0975 35.1679 14.3717 -23.2637 -2.9734 -0.0000 -0.0000 3.1949 19.2444 15.0443 5.1778 -7.1250 0.0000 -0.0000 -7.8297 45.7230 -0.1406 0.0000 -0.0000 0.0000 90.8868 -2.1855 30.8732 -16.3881 26.0440 -3.8148 0.0000 -0.0000 -13.0655 -21.7922 -0.5247 0.2098 7.1250 -0.0000 -0.0000 3.7835 -30.5330 1.3393
-25.6537 15.1720 0.0542 170.6350 -86.3627 -172.3580 0.0000 0.0000 0.0000 -26.4559 -20.3716 3.0036 1.8711 8.5922 24.5279 1.0558 16.9098 -31.8302 0.0123 0.7174 1.9715 0.0000 0.0000 0.0000 23.5390 20.0654 0.5783 -2.1895 -9.2500 26.5806 -1.5730 -18.1812 -36.0481 -1.0814 6.6095 -18.5635 -3.3125 2.1372 2.7233 -1.5871 2.7499 3.3645 0.1916 1.2888 1.8528 5.6550 1.8060 -8.8442 -0.8914 1.7976 3.4481 -1.1892 0.9402 2.7263 -0.0000 0.0000 0.0000 -87.1930 -2.1453 35.4097 14.4188 -23.3303 -2.9920 -0.0000 -0.0000 3.1895 19.1194 15.2942 5.2246 -7.1250 0.0000 -0.0000 -8.0044 45.9661 -0.1921 -0.0000 0.0000 0.0000 90.8165 -2.1739 30.9324 -16.4036 26.0649 -3.8216 0.0000 -0.0000 -13.3574 -21.6782 -0.5896 0.2344 7.1250 -0.0000 -0.0000 3.8767 -30.6017 1.3661
-25.6520 15.1723 0.0538 170.5150 -86.3986 -172.2490 0.0000 0.0000 0.0000 -26.4441 -20.3355 2.9773 1.8720 8.5942 24.5340 1.0241 16.9760 -31.6991 0.0069 0.5370 1.4756 0.0000 0.0000 0.0000 23.5475 20.0655 0.5993 -2.1880 -9.2471 26.5715 -1.5891 -18.1635 -36.1174 -1.0709 6.5785 -18.4724 -3.3225 2.1451 2.8010 -1.5945 2.7558 3.3376 0.1859 1.2929 1.7813 5.5988 1.7706 -8.8593 -0.8367 1.7523 3.4801 -1.1637 0.9193 2.7365 0.0000 -0.0000 0.0000 -87.1194 -2.1257 35.6661 14.4479 -23.3714 -3.0035 -0.0000 -0.0000 3.1933 19.2232 15.2535 5.2415 -7.1250 0.0000 -0.0000 -7.8987 45.9373 -0.1839 0.0000 -0.0000 0.0000 90.8043 -2.1893 30.8945 -16.3929 26.0505 -3.8169 0.0000 -0.0000 -13.6032 -21.5339 -0.5552 0.2191 7.1250 -0.0000 -0.0000 3.9894 -30.5634 1.4096
